<?xml version="1.0" standalone="no"?>
<!DOCTYPE svg PUBLIC "-//W3C//DTD SVG 20010904//EN"
 "http://www.w3.org/TR/2001/REC-SVG-20010904/DTD/svg10.dtd">
<svg version="1.0" xmlns="http://www.w3.org/2000/svg"
 width="512.000000pt" height="512.000000pt" viewBox="0 0 512.000000 512.000000"
 preserveAspectRatio="xMidYMid meet">

<g transform="translate(0.000000,512.000000) scale(0.100000,-0.100000)"
fill="#000000" stroke="none">
<path d="M1904 5080 c-135 -29 -256 -130 -304 -257 l-18 -48 -238 -5 c-222 -5
-243 -7 -289 -28 -59 -27 -129 -92 -156 -144 l-19 -38 -148 0 c-170 0 -239
-13 -347 -66 -190 -93 -328 -272 -370 -480 -14 -71 -15 -250 -13 -1694 l3
-1615 27 -80 c79 -231 255 -397 486 -456 72 -18 122 -19 1267 -19 l1191 0 68
-34 c37 -19 105 -45 149 -57 153 -42 378 -25 499 37 28 14 34 14 77 -4 93 -40
172 -55 291 -56 246 0 426 89 650 320 119 123 190 221 190 261 0 42 -38 75
-81 71 -28 -3 -42 -15 -93 -83 -81 -107 -228 -251 -316 -310 -107 -71 -192
-98 -325 -103 -122 -4 -201 11 -286 54 -61 30 -87 30 -149 -1 -75 -38 -154
-55 -255 -55 -182 0 -300 50 -478 205 -173 150 -333 405 -391 624 -121 453 25
888 364 1084 196 113 482 118 753 15 l77 -29 105 36 c141 49 239 66 370 66
281 -1 501 -127 645 -370 136 -229 165 -548 75 -836 -29 -93 -31 -122 -9 -153
20 -29 83 -31 108 -3 10 11 29 55 43 98 176 553 -33 1133 -484 1339 -43 20
-79 37 -80 38 -2 2 6 29 18 61 51 147 48 322 -8 435 -27 53 -31 56 -98 80 -95
33 -277 35 -372 3 l-63 -21 0 547 c0 620 -1 628 -75 778 -78 158 -224 285
-395 344 -55 19 -91 23 -238 27 l-173 4 -19 39 c-27 53 -81 104 -143 136 -52
28 -54 28 -296 33 l-243 5 -19 50 c-40 105 -130 194 -237 235 -61 23 -169 33
-228 20z m135 -151 c103 -22 180 -101 201 -207 22 -105 13 -102 314 -102 288
0 318 -6 364 -65 38 -48 44 -90 40 -295 -3 -216 -9 -238 -70 -282 l-33 -23
-858 -3 c-963 -3 -903 -7 -955 71 -27 40 -27 44 -30 232 -5 255 10 304 102
346 37 17 70 19 302 19 257 0 261 0 281 23 12 12 26 46 32 75 6 29 17 65 25
81 21 40 98 107 137 119 76 24 86 25 148 11z m-1179 -694 l0 -175 -95 0 c-137
0 -197 -31 -248 -125 -22 -39 -22 -50 -25 -517 -3 -525 -2 -540 54 -554 37 -9
76 6 91 36 10 19 13 138 13 494 0 570 -17 516 165 516 121 0 121 0 149 -29 15
-16 56 -42 89 -58 l62 -28 810 -3 c453 -1 844 1 887 6 84 11 153 40 195 84 27
28 28 28 150 28 110 0 125 -2 143 -20 19 -19 20 -33 20 -499 l0 -478 -102 -5
c-72 -4 -124 -12 -173 -29 -67 -23 -71 -26 -98 -79 -56 -113 -59 -288 -8 -435
12 -32 20 -59 18 -61 -1 -1 -37 -18 -80 -38 -153 -69 -286 -189 -382 -339
l-48 -77 -263 0 c-241 0 -264 -1 -285 -19 -32 -26 -32 -86 0 -112 21 -17 43
-19 256 -19 l232 0 -17 -63 c-63 -228 -49 -511 38 -754 l29 -83 -867 0 c-862
0 -867 0 -894 21 l-26 20 0 902 c0 704 -3 907 -13 927 -26 52 -105 52 -132 0
-13 -25 -15 -143 -15 -918 0 -1005 -3 -959 75 -1037 25 -25 59 -48 81 -54 27
-7 334 -11 951 -11 l911 0 55 -82 c31 -46 92 -125 137 -175 l81 -93 -1068 0
c-720 0 -1089 4 -1129 11 -184 33 -349 181 -407 363 l-22 71 0 1610 0 1610 22
70 c44 140 147 259 279 322 90 43 132 51 282 52 l122 1 0 -175z m2555 160
c194 -50 350 -210 390 -402 12 -54 15 -182 15 -640 l0 -571 -47 -41 -47 -40
-39 32 c-62 51 -124 93 -167 112 l-39 18 -3 516 c-3 510 -3 516 -25 557 -49
91 -115 124 -248 124 l-95 0 0 175 0 175 123 0 c78 0 145 -6 182 -15z m-94
-1645 c73 -13 203 -79 266 -135 86 -76 158 -200 178 -308 6 -33 4 -38 -16 -46
-17 -6 -38 -3 -74 11 -27 11 -97 31 -155 46 -89 22 -128 26 -257 26 l-152 1
-21 49 c-33 81 -44 171 -30 254 6 39 17 76 24 81 33 27 148 38 237 21z m976
-1 c73 -13 81 -22 93 -110 10 -70 -2 -167 -30 -241 l-20 -54 -113 4 c-76 3
-142 -1 -206 -12 -52 -9 -95 -15 -96 -14 -1 2 -12 37 -24 78 -13 41 -36 98
-52 127 l-29 52 57 46 c131 107 275 149 420 124z"/>
<path d="M1925 4765 c-16 -15 -25 -36 -25 -55 0 -75 97 -110 148 -54 71 79
-48 185 -123 109z"/>
<path d="M1432 4327 c-31 -33 -29 -80 4 -106 26 -21 36 -21 549 -21 513 0 523
0 549 21 34 27 36 79 4 109 -21 20 -32 20 -553 20 l-532 0 -21 -23z"/>
<path d="M1085 3305 c-24 -23 -25 -29 -25 -155 0 -72 4 -139 10 -149 5 -10 22
-24 39 -30 27 -12 42 -6 252 100 122 61 233 122 246 135 13 13 23 35 23 49 0
32 -41 75 -71 75 -12 0 -95 -38 -185 -84 l-164 -84 0 59 c0 50 -4 64 -25 84
-13 14 -36 25 -50 25 -14 0 -37 -11 -50 -25z"/>
<path d="M1907 3209 c-46 -27 -41 -105 9 -128 17 -7 134 -11 368 -11 332 0
344 1 370 21 33 26 36 79 6 109 -19 19 -33 20 -377 20 -232 -1 -364 -4 -376
-11z"/>
<path d="M1082 2617 c-20 -21 -22 -34 -22 -154 0 -117 2 -133 21 -157 13 -17
30 -26 48 -26 29 0 441 205 479 239 28 24 28 60 1 95 -33 42 -66 35 -235 -54
-84 -44 -156 -80 -159 -80 -3 0 -5 24 -5 54 0 39 -6 60 -21 80 -27 34 -77 36
-107 3z"/>
<path d="M1924 2530 c-26 -10 -54 -48 -54 -71 0 -9 9 -28 21 -43 l20 -26 368
0 c344 0 369 1 384 18 24 27 22 85 -4 108 -20 18 -42 19 -368 21 -190 1 -356
-2 -367 -7z"/>
<path d="M1103 1950 c-36 -15 -43 -43 -43 -180 0 -126 1 -132 25 -155 13 -14
33 -25 44 -25 29 0 452 218 479 247 26 29 28 63 5 91 -37 44 -59 39 -236 -53
l-167 -86 0 59 c0 42 -5 66 -17 80 -21 25 -60 35 -90 22z"/>
<path d="M2921 1434 c-18 -23 -21 -40 -21 -123 1 -100 7 -118 48 -140 25 -13
58 -7 85 17 14 13 17 33 17 124 0 95 -2 110 -20 128 -30 30 -83 27 -109 -6z"/>
<path d="M4420 1440 c-17 -17 -20 -33 -20 -123 0 -112 10 -140 55 -151 27 -7
62 7 82 33 8 10 12 52 13 112 0 83 -3 100 -21 123 -26 33 -79 36 -109 6z"/>
<path d="M3471 1294 c-12 -15 -21 -37 -21 -50 0 -35 63 -99 128 -131 50 -24
69 -28 147 -28 78 0 97 4 147 28 65 32 128 96 128 131 0 13 -9 35 -21 50 -29
36 -77 35 -121 -3 -50 -43 -77 -54 -133 -54 -56 0 -83 11 -133 54 -44 38 -92
39 -121 3z"/>
</g>
</svg>
