<?xml version="1.0" standalone="no"?>
<!DOCTYPE svg PUBLIC "-//W3C//DTD SVG 20010904//EN"
 "http://www.w3.org/TR/2001/REC-SVG-20010904/DTD/svg10.dtd">
<svg version="1.0" xmlns="http://www.w3.org/2000/svg"
 width="700.000000pt" height="560.000000pt" viewBox="0 0 700.000000 560.000000"
 preserveAspectRatio="xMidYMid meet">

<g transform="translate(0.000000,560.000000) scale(0.100000,-0.100000)"
fill="#000000" stroke="none">
<path d="M2140 4993 c-33 -13 -68 -44 -83 -76 -9 -18 -23 -91 -32 -162 -23
-194 -23 -195 -50 -195 -64 0 -79 -29 -96 -187 -11 -110 -11 -123 4 -147 10
-14 28 -28 42 -32 30 -7 30 -16 10 -164 -21 -151 -19 -208 6 -249 l21 -35 -24
17 c-100 72 -219 75 -269 7 -21 -28 -21 -28 -41 -8 -39 39 -114 4 -158 -73
-20 -36 -25 -57 -24 -114 0 -92 41 -175 86 -175 14 0 18 8 18 39 0 76 20 145
59 203 l39 58 12 -30 c6 -16 47 -64 91 -107 43 -43 79 -85 79 -94 0 -10 -16
-40 -35 -69 -19 -29 -35 -55 -35 -58 0 -4 24 18 54 47 l54 54 31 -22 c40 -29
107 -57 153 -65 l38 -7 -11 28 c-6 15 -21 82 -34 148 -14 65 -36 141 -49 167
l-25 48 32 -17 c43 -22 133 -22 175 1 18 9 43 33 54 52 l21 36 26 -54 c21 -42
35 -58 71 -75 58 -30 123 -30 174 0 62 34 73 63 97 252 12 94 23 171 24 173 2
2 43 -2 91 -8 72 -9 93 -16 109 -35 19 -22 48 -26 504 -84 467 -58 485 -60
506 -42 21 16 31 16 136 4 62 -8 115 -16 118 -19 3 -2 -4 -78 -15 -168 -11
-90 -16 -178 -13 -196 16 -75 78 -121 168 -123 47 -1 65 3 98 25 22 14 46 41
53 58 l13 32 20 -51 c14 -39 29 -59 58 -78 85 -56 210 -32 251 47 13 26 58
296 58 349 0 4 19 12 43 18 55 15 62 31 78 174 15 139 10 164 -36 183 -41 17
-40 7 -16 193 20 153 17 192 -18 241 -40 57 -151 79 -221 44 -19 -9 -46 -34
-60 -55 l-24 -38 -13 37 c-27 77 -85 114 -176 114 -62 0 -110 -26 -138 -75
-11 -19 -25 -91 -38 -194 -11 -90 -22 -165 -23 -167 -2 -1 -57 5 -123 14 -88
11 -124 20 -135 33 -22 27 -965 144 -996 124 -16 -10 -39 -11 -110 -3 -49 6
-93 13 -97 18 -4 4 1 78 12 166 16 120 18 168 11 196 -38 136 -252 160 -316
35 l-16 -31 -13 38 c-16 47 -50 84 -92 102 -32 14 -114 18 -143 7z"/>
<path d="M5307 4797 l-89 -82 50 -49 50 -49 81 74 c44 41 83 79 85 85 2 6 -17
32 -42 57 l-47 46 -88 -82z"/>
<path d="M3224 3881 c-45 -11 -90 -41 -116 -75 -36 -50 -38 -185 -3 -232 13
-18 14 -18 8 3 -8 33 3 67 33 103 38 44 93 69 186 83 l80 11 24 -27 c20 -24
24 -39 24 -95 1 -61 2 -65 15 -48 17 23 19 67 5 115 -7 25 -6 40 6 62 8 17 10
29 4 29 -5 0 -10 9 -10 20 0 11 -5 20 -11 20 -7 0 -17 6 -23 14 -13 16 -174
29 -222 17z"/>
<path d="M5070 3774 c-6 -14 -10 -29 -10 -34 0 -5 -13 -25 -30 -43 -32 -37
-37 -61 -19 -100 9 -20 8 -30 -6 -50 -16 -26 -14 -47 6 -47 5 0 29 18 52 41
39 37 45 40 84 34 25 -3 44 -2 48 5 3 5 12 10 18 10 7 -1 3 -9 -9 -18 -34 -28
-43 -55 -46 -130 -2 -57 0 -74 16 -91 11 -12 24 -21 31 -21 25 0 45 -36 39
-68 -5 -26 -2 -32 23 -46 17 -8 38 -26 47 -40 31 -49 49 -26 21 28 -19 36 -19
45 2 68 13 15 14 23 5 44 -21 44 -14 72 26 112 21 20 43 50 50 65 6 15 19 30
27 33 24 10 63 -23 74 -61 5 -19 18 -46 29 -60 16 -20 18 -32 12 -59 -4 -19
-3 -41 2 -51 6 -9 8 -33 5 -52 -5 -28 -3 -34 10 -31 9 2 21 19 26 38 5 19 13
40 18 46 5 7 9 36 8 65 -1 30 2 73 6 96 6 36 4 46 -16 71 -13 16 -32 44 -41
61 -9 17 -24 31 -33 31 -9 0 -45 11 -79 25 -55 22 -70 24 -124 17 -43 -6 -62
-5 -63 2 -1 6 -2 22 -2 35 -2 18 -10 27 -31 32 -17 5 -34 15 -38 24 -11 19
-72 45 -104 45 -17 0 -28 -8 -34 -26z"/>
<path d="M862 3684 c-18 -13 -22 -25 -22 -72 0 -31 -5 -134 -11 -228 -7 -94
-9 -183 -5 -197 4 -16 23 -35 53 -53 42 -24 312 -200 321 -209 2 -2 -3 -45
-12 -97 -8 -51 -20 -167 -26 -258 -11 -174 -13 -191 -36 -310 -8 -42 -14 -109
-12 -150 l3 -74 70 -18 c39 -9 206 -31 373 -49 317 -33 332 -32 332 11 0 14
11 18 48 22 26 3 64 13 84 22 l38 18 -20 28 c-25 35 -25 62 -2 83 25 23 46 21
66 -5 11 -15 15 -17 12 -6 -3 9 2 22 11 29 13 11 19 9 39 -16 31 -38 39 -68
24 -95 -12 -23 -56 -44 -72 -34 -6 4 -9 1 -6 -7 12 -36 81 -20 108 24 25 41
26 89 1 111 -19 18 -19 20 34 99 92 135 144 303 130 416 -14 113 -83 210 -178
251 -47 20 -62 22 -154 16 -141 -9 -149 -6 -163 58 -19 90 -69 148 -180 207
l-55 29 -3 -22 c-6 -34 -21 -48 -52 -48 -33 0 -73 44 -65 70 5 15 -5 17 -102
17 -104 1 -361 19 -395 29 -23 7 -25 15 -49 217 -12 100 -23 188 -25 195 -5
17 -75 15 -102 -4z"/>
<path d="M3280 3534 c-8 -3 -34 -15 -57 -27 l-42 -21 -25 23 c-13 13 -29 20
-35 16 -15 -9 -14 -59 3 -100 21 -49 60 -65 153 -64 105 0 142 14 170 64 23
41 31 115 13 115 -5 0 -10 -9 -10 -20 0 -10 -9 -24 -21 -31 -18 -9 -26 -6 -53
20 -30 29 -58 37 -96 25z m60 -84 c0 -13 -46 -24 -62 -14 -9 6 -4 11 17 15 45
10 45 10 45 -1z"/>
<path d="M4405 2483 c-45 -17 -101 -28 -155 -32 -98 -7 -139 -25 -170 -76 -33
-53 -36 -102 -10 -179 12 -36 25 -66 30 -66 5 0 14 24 20 54 13 63 38 90 100
107 37 10 56 9 108 -4 108 -28 128 -52 120 -142 -2 -25 -1 -45 1 -45 19 0 77
62 100 108 36 70 64 97 118 111 67 18 99 72 72 124 -24 45 -63 49 -107 12 -38
-32 -47 -31 -68 5 -15 24 -58 51 -83 50 -3 0 -37 -12 -76 -27z"/>
<path d="M5248 2300 c-25 -64 -30 -145 -25 -352 3 -120 3 -218 0 -218 -3 0
-30 7 -61 16 -130 38 -307 -21 -359 -120 l-15 -28 -18 29 c-10 17 -31 40 -47
51 l-29 21 -18 -30 c-17 -29 -31 -34 -60 -23 -12 5 -14 15 -10 48 6 43 6 43
-23 39 -20 -3 -36 1 -47 12 -15 15 -30 17 -94 12 -90 -6 -149 -30 -210 -82
l-43 -38 7 -65 c6 -63 6 -65 -15 -59 -20 5 -21 2 -21 -61 0 -75 15 -191 31
-239 l10 -31 142 -1 142 -2 49 93 c27 51 52 97 57 103 18 19 38 -23 105 -227
38 -115 72 -208 75 -208 3 0 13 24 22 52 35 120 180 534 190 545 7 7 17 9 23
5 6 -4 30 -82 55 -174 l44 -168 132 0 c126 0 133 -1 133 -20 0 -19 -7 -20
-150 -20 l-149 0 -11 43 c-48 183 -65 235 -73 222 -8 -15 -168 -483 -188 -552
-7 -22 -16 -33 -29 -33 -15 0 -31 38 -90 218 -40 119 -75 223 -78 231 -3 7
-23 -21 -46 -65 l-41 -79 -150 -5 -150 -5 66 -67 c52 -52 77 -70 113 -80 38
-10 46 -16 44 -33 -2 -14 -10 -20 -25 -19 -29 1 -29 -3 7 -50 25 -33 28 -42
18 -60 -7 -11 -12 -25 -13 -31 0 -6 -105 -10 -295 -10 -281 0 -297 1 -337 21
-49 24 -53 21 -20 -18 31 -38 128 -94 187 -108 28 -7 48 -15 45 -20 -2 -4 -62
-10 -132 -14 -126 -7 -213 -26 -244 -53 -17 -14 -39 -77 -39 -112 0 -29 -11
-26 -50 14 -43 45 -94 49 -112 10 -11 -23 -8 -30 33 -71 41 -42 47 -45 91 -43
32 2 53 -2 65 -13 33 -29 80 -27 92 4 7 17 3 32 -11 56 -13 21 -17 37 -11 43
6 6 126 -15 324 -56 173 -37 360 -75 416 -87 l102 -21 95 73 c53 40 96 75 96
77 0 3 -21 31 -46 64 -25 33 -44 62 -42 64 2 2 34 -14 72 -36 37 -21 72 -39
77 -39 11 0 119 80 249 183 41 33 117 101 168 151 50 50 92 88 92 84 0 -22 42
-313 46 -320 6 -9 68 -11 102 -2 22 6 22 9 22 158 2 444 31 918 64 1026 17 59
41 64 55 13 55 -200 106 -411 127 -518 14 -71 48 -240 75 -375 27 -135 49
-257 49 -272 0 -28 16 -38 60 -38 29 0 60 22 60 43 0 58 -23 425 -35 552 -18
189 -41 540 -55 818 -9 187 -11 202 -37 253 l-28 55 -269 -3 -268 -3 -10 -25z"/>
<path d="M1066 1365 c-3 -16 -31 -223 -61 -460 -31 -236 -60 -443 -65 -460 -6
-19 -28 -43 -59 -64 -53 -36 -69 -60 -49 -73 27 -17 116 2 159 34 23 17 29 29
29 59 0 20 7 56 16 80 8 24 58 189 110 367 52 178 110 371 129 430 19 58 33
107 32 108 -1 1 -55 4 -119 6 l-117 3 -5 -30z"/>
<path d="M1505 1373 c3 -15 19 -136 35 -267 17 -132 45 -318 62 -415 17 -97
34 -212 37 -256 8 -103 27 -135 82 -135 21 0 40 4 44 9 3 5 -6 31 -21 58 -24
45 -26 54 -21 148 3 55 10 147 16 205 10 103 34 641 28 646 -2 2 -46 8 -98 14
-51 5 -111 13 -131 16 -37 6 -38 5 -33 -23z"/>
<path d="M5362 568 c-6 -6 -12 -18 -12 -25 0 -7 -12 -35 -27 -61 -32 -57 -27
-82 16 -82 64 0 87 31 92 120 3 54 3 55 -26 58 -17 2 -36 -3 -43 -10z"/>
<path d="M5875 571 c-26 -6 -30 -11 -28 -40 4 -97 49 -171 102 -171 55 0 65
35 26 92 -14 20 -25 47 -25 60 -1 65 -11 73 -75 59z"/>
<path d="M3008 453 c-46 -55 -47 -58 -30 -76 30 -30 87 -11 134 45 34 40 38
49 28 67 -8 16 -20 21 -48 21 -33 0 -42 -7 -84 -57z"/>
</g>
</svg>
